<mxfile host="65bd71144e" scale="4" border="0">
    <diagram id="DScMzdTD0CjVcI1dzCDb" name="ページ1">
        <mxGraphModel dx="1597" dy="907" grid="1" gridSize="10" guides="1" tooltips="1" connect="1" arrows="1" fold="1" page="1" pageScale="1" pageWidth="827" pageHeight="1169" math="0" shadow="0">
            <root>
                <mxCell id="0"/>
                <mxCell id="1" parent="0"/>
                <mxCell id="181" value="" style="group;container=1;spacing=0;rounded=1;fontColor=#5C5C5C;" parent="1" vertex="1" connectable="0">
                    <mxGeometry width="1190" height="915" as="geometry"/>
                </mxCell>
                <mxCell id="86" value="tree" style="shape=table;startSize=30;container=1;collapsible=1;childLayout=tableLayout;fixedRows=1;rowLines=0;fontStyle=1;align=center;resizeLast=1;spacing=0;rounded=1;fillColor=#21C0A5;strokeColor=#006658;fontColor=#5C5C5C;" parent="181" vertex="1">
                    <mxGeometry x="583.3363440860217" y="57.54716981132076" width="230.32258064516134" height="223.17073170731706" as="geometry"/>
                </mxCell>
                <mxCell id="87" value="" style="shape=partialRectangle;collapsible=0;dropTarget=0;pointerEvents=0;fillColor=none;top=0;left=0;bottom=0;right=0;points=[[0,0.5],[1,0.5]];portConstraint=eastwest;spacing=0;rounded=1;strokeColor=#006658;fontColor=#5C5C5C;" parent="86" vertex="1">
                    <mxGeometry y="30" width="230.32258064516134" height="30" as="geometry"/>
                </mxCell>
                <mxCell id="88" value="id" style="shape=partialRectangle;connectable=0;fillColor=none;top=0;left=0;bottom=0;right=0;fontStyle=1;overflow=hidden;spacing=0;rounded=1;strokeColor=#006658;fontColor=#5C5C5C;" parent="87" vertex="1">
                    <mxGeometry width="90" height="30" as="geometry"/>
                </mxCell>
                <mxCell id="89" value="integer" style="shape=partialRectangle;connectable=0;fillColor=none;top=0;left=0;bottom=0;right=0;align=center;spacingLeft=0;fontStyle=5;overflow=hidden;flipH=1;spacing=0;rounded=1;strokeColor=#006658;fontColor=#5C5C5C;" parent="87" vertex="1">
                    <mxGeometry x="90" width="140.32258064516134" height="30" as="geometry"/>
                </mxCell>
                <mxCell id="186" style="shape=partialRectangle;collapsible=0;dropTarget=0;pointerEvents=0;fillColor=none;top=0;left=0;bottom=1;right=0;points=[[0,0.5],[1,0.5]];portConstraint=eastwest;strokeColor=none;spacing=0;rounded=1;fontColor=#5C5C5C;" parent="86" vertex="1">
                    <mxGeometry y="60" width="230.32258064516134" height="30" as="geometry"/>
                </mxCell>
                <mxCell id="187" value="name" style="shape=partialRectangle;connectable=0;fillColor=none;top=0;left=0;bottom=0;right=0;fontStyle=1;overflow=hidden;spacing=0;rounded=1;strokeColor=#006658;fontColor=#5C5C5C;" parent="186" vertex="1">
                    <mxGeometry width="90" height="30" as="geometry"/>
                </mxCell>
                <mxCell id="188" value="string" style="shape=partialRectangle;connectable=0;fillColor=none;top=0;left=0;bottom=0;right=0;align=center;spacingLeft=0;fontStyle=5;overflow=hidden;strokeColor=none;spacing=0;rounded=1;fontColor=#5C5C5C;" parent="186" vertex="1">
                    <mxGeometry x="90" width="140.32258064516134" height="30" as="geometry"/>
                </mxCell>
                <mxCell id="189" style="shape=partialRectangle;collapsible=0;dropTarget=0;pointerEvents=0;fillColor=none;top=0;left=0;bottom=1;right=0;points=[[0,0.5],[1,0.5]];portConstraint=eastwest;strokeColor=none;spacing=0;rounded=1;fontColor=#5C5C5C;" parent="86" vertex="1">
                    <mxGeometry y="90" width="230.32258064516134" height="30" as="geometry"/>
                </mxCell>
                <mxCell id="190" value="point" style="shape=partialRectangle;connectable=0;fillColor=none;top=0;left=0;bottom=0;right=0;fontStyle=1;overflow=hidden;spacing=0;rounded=1;strokeColor=#006658;fontColor=#5C5C5C;" parent="189" vertex="1">
                    <mxGeometry width="90" height="30" as="geometry"/>
                </mxCell>
                <mxCell id="191" value="float" style="shape=partialRectangle;connectable=0;fillColor=none;top=0;left=0;bottom=0;right=0;align=center;spacingLeft=0;fontStyle=5;overflow=hidden;strokeColor=none;spacing=0;rounded=1;fontColor=#5C5C5C;" parent="189" vertex="1">
                    <mxGeometry x="90" width="140.32258064516134" height="30" as="geometry"/>
                </mxCell>
                <mxCell id="247" style="shape=partialRectangle;collapsible=0;dropTarget=0;pointerEvents=0;fillColor=none;top=0;left=0;bottom=1;right=0;points=[[0,0.5],[1,0.5]];portConstraint=eastwest;strokeColor=none;spacing=0;rounded=1;fontColor=#5C5C5C;" parent="86" vertex="1">
                    <mxGeometry y="120" width="230.32258064516134" height="30" as="geometry"/>
                </mxCell>
                <mxCell id="248" value="log_id" style="shape=partialRectangle;connectable=0;fillColor=none;top=0;left=0;bottom=0;right=0;fontStyle=1;overflow=hidden;spacing=0;rounded=1;strokeColor=#006658;fontColor=#5C5C5C;" parent="247" vertex="1">
                    <mxGeometry width="90" height="30" as="geometry"/>
                </mxCell>
                <mxCell id="249" value="integer" style="shape=partialRectangle;connectable=0;fillColor=none;top=0;left=0;bottom=0;right=0;align=center;spacingLeft=0;fontStyle=5;overflow=hidden;strokeColor=none;spacing=0;rounded=1;fontColor=#5C5C5C;" parent="247" vertex="1">
                    <mxGeometry x="90" width="140.32258064516134" height="30" as="geometry"/>
                </mxCell>
                <mxCell id="122" value="user" style="shape=table;startSize=30;container=1;collapsible=1;childLayout=tableLayout;fixedRows=1;rowLines=0;fontStyle=1;align=center;resizeLast=1;spacing=0;rounded=1;fillColor=#21C0A5;strokeColor=#006658;fontColor=#5C5C5C;" parent="181" vertex="1">
                    <mxGeometry x="23.337473118279583" y="57.54716981132076" width="435.0537634408603" height="312.43902439024396" as="geometry"/>
                </mxCell>
                <mxCell id="123" value="" style="shape=partialRectangle;collapsible=0;dropTarget=0;pointerEvents=0;fillColor=none;top=0;left=0;bottom=0;right=0;points=[[0,0.5],[1,0.5]];portConstraint=eastwest;spacing=0;rounded=1;strokeColor=#006658;fontColor=#5C5C5C;" parent="122" vertex="1">
                    <mxGeometry y="30" width="435.0537634408603" height="30" as="geometry"/>
                </mxCell>
                <mxCell id="124" value="id" style="shape=partialRectangle;connectable=0;fillColor=none;top=0;left=0;bottom=0;right=0;fontStyle=1;overflow=hidden;spacing=0;rounded=1;strokeColor=#006658;fontColor=#5C5C5C;" parent="123" vertex="1">
                    <mxGeometry width="170" height="30" as="geometry"/>
                </mxCell>
                <mxCell id="125" value="integer" style="shape=partialRectangle;connectable=0;fillColor=none;top=0;left=0;bottom=0;right=0;align=center;spacingLeft=0;fontStyle=5;overflow=hidden;flipH=1;spacing=0;rounded=1;strokeColor=#006658;fontColor=#5C5C5C;" parent="123" vertex="1">
                    <mxGeometry x="170" width="265.0537634408603" height="30" as="geometry"/>
                </mxCell>
                <mxCell id="126" value="" style="shape=partialRectangle;collapsible=0;dropTarget=0;pointerEvents=0;fillColor=none;top=0;left=0;bottom=1;right=0;points=[[0,0.5],[1,0.5]];portConstraint=eastwest;strokeColor=none;spacing=0;rounded=1;fontColor=#5C5C5C;" parent="122" vertex="1">
                    <mxGeometry y="60" width="435.0537634408603" height="30" as="geometry"/>
                </mxCell>
                <mxCell id="127" value="name" style="shape=partialRectangle;connectable=0;fillColor=none;top=0;left=0;bottom=0;right=0;fontStyle=1;overflow=hidden;spacing=0;rounded=1;strokeColor=#006658;fontColor=#5C5C5C;" parent="126" vertex="1">
                    <mxGeometry width="170" height="30" as="geometry"/>
                </mxCell>
                <mxCell id="128" value="string" style="shape=partialRectangle;connectable=0;fillColor=none;top=0;left=0;bottom=0;right=0;align=center;spacingLeft=0;fontStyle=5;overflow=hidden;strokeColor=none;spacing=0;rounded=1;fontColor=#5C5C5C;" parent="126" vertex="1">
                    <mxGeometry x="170" width="265.0537634408603" height="30" as="geometry"/>
                </mxCell>
                <mxCell id="129" style="shape=partialRectangle;collapsible=0;dropTarget=0;pointerEvents=0;fillColor=none;top=0;left=0;bottom=1;right=0;points=[[0,0.5],[1,0.5]];portConstraint=eastwest;strokeColor=none;spacing=0;rounded=1;fontColor=#5C5C5C;" parent="122" vertex="1">
                    <mxGeometry y="90" width="435.0537634408603" height="30" as="geometry"/>
                </mxCell>
                <mxCell id="130" value="email" style="shape=partialRectangle;connectable=0;fillColor=none;top=0;left=0;bottom=0;right=0;fontStyle=1;overflow=hidden;spacing=0;rounded=1;strokeColor=#006658;fontColor=#5C5C5C;" parent="129" vertex="1">
                    <mxGeometry width="170" height="30" as="geometry"/>
                </mxCell>
                <mxCell id="131" value="string" style="shape=partialRectangle;connectable=0;fillColor=none;top=0;left=0;bottom=0;right=0;align=center;spacingLeft=0;fontStyle=5;overflow=hidden;strokeColor=none;spacing=0;rounded=1;fontColor=#5C5C5C;" parent="129" vertex="1">
                    <mxGeometry x="170" width="265.0537634408603" height="30" as="geometry"/>
                </mxCell>
                <mxCell id="132" style="shape=partialRectangle;collapsible=0;dropTarget=0;pointerEvents=0;fillColor=none;top=0;left=0;bottom=1;right=0;points=[[0,0.5],[1,0.5]];portConstraint=eastwest;strokeColor=none;spacing=0;rounded=1;fontColor=#5C5C5C;" parent="122" vertex="1">
                    <mxGeometry y="120" width="435.0537634408603" height="30" as="geometry"/>
                </mxCell>
                <mxCell id="133" value="password" style="shape=partialRectangle;connectable=0;fillColor=none;top=0;left=0;bottom=0;right=0;fontStyle=1;overflow=hidden;spacing=0;rounded=1;strokeColor=#006658;fontColor=#5C5C5C;" parent="132" vertex="1">
                    <mxGeometry width="170" height="30" as="geometry"/>
                </mxCell>
                <mxCell id="134" value="string" style="shape=partialRectangle;connectable=0;fillColor=none;top=0;left=0;bottom=0;right=0;align=center;spacingLeft=0;fontStyle=5;overflow=hidden;strokeColor=none;spacing=0;rounded=1;fontColor=#5C5C5C;" parent="132" vertex="1">
                    <mxGeometry x="170" width="265.0537634408603" height="30" as="geometry"/>
                </mxCell>
                <mxCell id="135" style="shape=partialRectangle;collapsible=0;dropTarget=0;pointerEvents=0;fillColor=none;top=0;left=0;bottom=1;right=0;points=[[0,0.5],[1,0.5]];portConstraint=eastwest;strokeColor=none;spacing=0;rounded=1;fontColor=#5C5C5C;" parent="122" vertex="1">
                    <mxGeometry y="150" width="435.0537634408603" height="30" as="geometry"/>
                </mxCell>
                <mxCell id="136" value="password_confirmation" style="shape=partialRectangle;connectable=0;fillColor=none;top=0;left=0;bottom=0;right=0;fontStyle=1;overflow=hidden;spacing=0;rounded=1;strokeColor=#006658;fontColor=#5C5C5C;" parent="135" vertex="1">
                    <mxGeometry width="170" height="30" as="geometry"/>
                </mxCell>
                <mxCell id="137" value="string" style="shape=partialRectangle;connectable=0;fillColor=none;top=0;left=0;bottom=0;right=0;align=center;spacingLeft=0;fontStyle=5;overflow=hidden;strokeColor=none;spacing=0;rounded=1;fontColor=#5C5C5C;" parent="135" vertex="1">
                    <mxGeometry x="170" width="265.0537634408603" height="30" as="geometry"/>
                </mxCell>
                <mxCell id="233" style="shape=partialRectangle;collapsible=0;dropTarget=0;pointerEvents=0;fillColor=none;top=0;left=0;bottom=1;right=0;points=[[0,0.5],[1,0.5]];portConstraint=eastwest;strokeColor=none;spacing=0;rounded=1;fontColor=#5C5C5C;" parent="122" vertex="1">
                    <mxGeometry y="180" width="435.0537634408603" height="30" as="geometry"/>
                </mxCell>
                <mxCell id="234" value="tree_id" style="shape=partialRectangle;connectable=0;fillColor=none;top=0;left=0;bottom=0;right=0;fontStyle=1;overflow=hidden;spacing=0;rounded=1;strokeColor=#006658;fontColor=#5C5C5C;" parent="233" vertex="1">
                    <mxGeometry width="170" height="30" as="geometry"/>
                </mxCell>
                <mxCell id="235" value="integer" style="shape=partialRectangle;connectable=0;fillColor=none;top=0;left=0;bottom=0;right=0;align=center;spacingLeft=0;fontStyle=5;overflow=hidden;strokeColor=none;spacing=0;rounded=1;fontColor=#5C5C5C;" parent="233" vertex="1">
                    <mxGeometry x="170" width="265.0537634408603" height="30" as="geometry"/>
                </mxCell>
                <mxCell id="205" value="answer" style="shape=table;startSize=30;container=1;collapsible=1;childLayout=tableLayout;fixedRows=1;rowLines=0;fontStyle=1;align=center;resizeLast=1;spacing=0;rounded=1;fillColor=#21C0A5;strokeColor=#006658;fontColor=#5C5C5C;" parent="181" vertex="1">
                    <mxGeometry x="361.6677956989248" y="436.9374137137598" width="230.32258064516134" height="178.53658536585365" as="geometry"/>
                </mxCell>
                <mxCell id="206" value="" style="shape=partialRectangle;collapsible=0;dropTarget=0;pointerEvents=0;fillColor=none;top=0;left=0;bottom=0;right=0;points=[[0,0.5],[1,0.5]];portConstraint=eastwest;spacing=0;rounded=1;strokeColor=#006658;fontColor=#5C5C5C;" parent="205" vertex="1">
                    <mxGeometry y="30" width="230.32258064516134" height="30" as="geometry"/>
                </mxCell>
                <mxCell id="207" value="id" style="shape=partialRectangle;connectable=0;fillColor=none;top=0;left=0;bottom=0;right=0;fontStyle=1;overflow=hidden;spacing=0;rounded=1;strokeColor=#006658;fontColor=#5C5C5C;" parent="206" vertex="1">
                    <mxGeometry width="90" height="30" as="geometry"/>
                </mxCell>
                <mxCell id="208" value="integer" style="shape=partialRectangle;connectable=0;fillColor=none;top=0;left=0;bottom=0;right=0;align=center;spacingLeft=0;fontStyle=5;overflow=hidden;flipH=1;spacing=0;rounded=1;strokeColor=#006658;fontColor=#5C5C5C;" parent="206" vertex="1">
                    <mxGeometry x="90" width="140.32258064516134" height="30" as="geometry"/>
                </mxCell>
                <mxCell id="209" style="shape=partialRectangle;collapsible=0;dropTarget=0;pointerEvents=0;fillColor=none;top=0;left=0;bottom=1;right=0;points=[[0,0.5],[1,0.5]];portConstraint=eastwest;strokeColor=none;spacing=0;rounded=1;fontColor=#5C5C5C;" parent="205" vertex="1">
                    <mxGeometry y="60" width="230.32258064516134" height="30" as="geometry"/>
                </mxCell>
                <mxCell id="210" value="title" style="shape=partialRectangle;connectable=0;fillColor=none;top=0;left=0;bottom=0;right=0;fontStyle=1;overflow=hidden;spacing=0;rounded=1;strokeColor=#006658;fontColor=#5C5C5C;" parent="209" vertex="1">
                    <mxGeometry width="90" height="30" as="geometry"/>
                </mxCell>
                <mxCell id="211" value="integer" style="shape=partialRectangle;connectable=0;fillColor=none;top=0;left=0;bottom=0;right=0;align=center;spacingLeft=0;fontStyle=5;overflow=hidden;strokeColor=none;spacing=0;rounded=1;fontColor=#5C5C5C;" parent="209" vertex="1">
                    <mxGeometry x="90" width="140.32258064516134" height="30" as="geometry"/>
                </mxCell>
                <mxCell id="212" style="shape=partialRectangle;collapsible=0;dropTarget=0;pointerEvents=0;fillColor=none;top=0;left=0;bottom=1;right=0;points=[[0,0.5],[1,0.5]];portConstraint=eastwest;strokeColor=none;spacing=0;rounded=1;fontColor=#5C5C5C;" parent="205" vertex="1">
                    <mxGeometry y="90" width="230.32258064516134" height="30" as="geometry"/>
                </mxCell>
                <mxCell id="213" value="point" style="shape=partialRectangle;connectable=0;fillColor=none;top=0;left=0;bottom=0;right=0;fontStyle=1;overflow=hidden;spacing=0;rounded=1;strokeColor=#006658;fontColor=#5C5C5C;" parent="212" vertex="1">
                    <mxGeometry width="90" height="30" as="geometry"/>
                </mxCell>
                <mxCell id="214" value="float" style="shape=partialRectangle;connectable=0;fillColor=none;top=0;left=0;bottom=0;right=0;align=center;spacingLeft=0;fontStyle=5;overflow=hidden;strokeColor=none;spacing=0;rounded=1;fontColor=#5C5C5C;" parent="212" vertex="1">
                    <mxGeometry x="90" width="140.32258064516134" height="30" as="geometry"/>
                </mxCell>
                <mxCell id="238" value="" style="edgeStyle=entityRelationEdgeStyle;fontSize=12;html=1;endArrow=ERmandOne;startArrow=ERmandOne;entryX=0;entryY=0.5;entryDx=0;entryDy=0;exitX=1;exitY=0.5;exitDx=0;exitDy=0;" parent="181" source="233" target="87" edge="1">
                    <mxGeometry width="100" height="100" relative="1" as="geometry">
                        <mxPoint x="547.956989247312" y="436.9374137137598" as="sourcePoint"/>
                        <mxPoint x="675.9139784946237" y="288.1569259088817" as="targetPoint"/>
                    </mxGeometry>
                </mxCell>
                <mxCell id="250" value="log" style="shape=table;startSize=30;container=1;collapsible=1;childLayout=tableLayout;fixedRows=1;rowLines=0;fontStyle=1;align=center;resizeLast=1;spacing=0;rounded=1;fillColor=#21C0A5;strokeColor=#006658;fontColor=#5C5C5C;" vertex="1" parent="181">
                    <mxGeometry x="909.996436815626" y="57.55194201564657" width="230.32258064516134" height="133.90243902439025" as="geometry"/>
                </mxCell>
                <mxCell id="251" value="" style="shape=partialRectangle;collapsible=0;dropTarget=0;pointerEvents=0;fillColor=none;top=0;left=0;bottom=0;right=0;points=[[0,0.5],[1,0.5]];portConstraint=eastwest;spacing=0;rounded=1;strokeColor=#006658;fontColor=#5C5C5C;" vertex="1" parent="250">
                    <mxGeometry y="30" width="230.32258064516134" height="30" as="geometry"/>
                </mxCell>
                <mxCell id="252" value="id" style="shape=partialRectangle;connectable=0;fillColor=none;top=0;left=0;bottom=0;right=0;fontStyle=1;overflow=hidden;spacing=0;rounded=1;strokeColor=#006658;fontColor=#5C5C5C;" vertex="1" parent="251">
                    <mxGeometry width="90" height="30" as="geometry"/>
                </mxCell>
                <mxCell id="253" value="integer" style="shape=partialRectangle;connectable=0;fillColor=none;top=0;left=0;bottom=0;right=0;align=center;spacingLeft=0;fontStyle=5;overflow=hidden;flipH=1;spacing=0;rounded=1;strokeColor=#006658;fontColor=#5C5C5C;" vertex="1" parent="251">
                    <mxGeometry x="90" width="140.32258064516134" height="30" as="geometry"/>
                </mxCell>
                <mxCell id="254" style="shape=partialRectangle;collapsible=0;dropTarget=0;pointerEvents=0;fillColor=none;top=0;left=0;bottom=1;right=0;points=[[0,0.5],[1,0.5]];portConstraint=eastwest;strokeColor=none;spacing=0;rounded=1;fontColor=#5C5C5C;" vertex="1" parent="250">
                    <mxGeometry y="60" width="230.32258064516134" height="30" as="geometry"/>
                </mxCell>
                <mxCell id="255" value="win" style="shape=partialRectangle;connectable=0;fillColor=none;top=0;left=0;bottom=0;right=0;fontStyle=1;overflow=hidden;spacing=0;rounded=1;strokeColor=#006658;fontColor=#5C5C5C;" vertex="1" parent="254">
                    <mxGeometry width="90" height="30" as="geometry"/>
                </mxCell>
                <mxCell id="256" value="boolean" style="shape=partialRectangle;connectable=0;fillColor=none;top=0;left=0;bottom=0;right=0;align=center;spacingLeft=0;fontStyle=5;overflow=hidden;strokeColor=none;spacing=0;rounded=1;fontColor=#5C5C5C;" vertex="1" parent="254">
                    <mxGeometry x="90" width="140.32258064516134" height="30" as="geometry"/>
                </mxCell>
                <mxCell id="246" value="" style="edgeStyle=entityRelationEdgeStyle;fontSize=12;html=1;endArrow=ERoneToMany;entryX=0;entryY=0.5;entryDx=0;entryDy=0;exitX=1;exitY=0.5;exitDx=0;exitDy=0;" parent="181" source="247" target="251" edge="1">
                    <mxGeometry width="100" height="100" relative="1" as="geometry">
                        <mxPoint x="951.3149847094802" y="483.3962264150943" as="sourcePoint"/>
                        <mxPoint x="1027.7370030581042" y="408.58490566037733" as="targetPoint"/>
                    </mxGeometry>
                </mxCell>
                <mxCell id="192" value="guestion" style="shape=table;startSize=30;container=1;collapsible=1;childLayout=tableLayout;fixedRows=1;rowLines=0;fontStyle=1;align=center;resizeLast=1;spacing=0;rounded=1;fillColor=#21C0A5;strokeColor=#006658;fontColor=#5C5C5C;" parent="181" vertex="1">
                    <mxGeometry x="23.340806451612906" y="425.85382880809937" width="230.32258064516134" height="178.53658536585365" as="geometry"/>
                </mxCell>
                <mxCell id="193" value="" style="shape=partialRectangle;collapsible=0;dropTarget=0;pointerEvents=0;fillColor=none;top=0;left=0;bottom=0;right=0;points=[[0,0.5],[1,0.5]];portConstraint=eastwest;spacing=0;rounded=1;strokeColor=#006658;fontColor=#5C5C5C;" parent="192" vertex="1">
                    <mxGeometry y="30" width="230.32258064516134" height="30" as="geometry"/>
                </mxCell>
                <mxCell id="194" value="id" style="shape=partialRectangle;connectable=0;fillColor=none;top=0;left=0;bottom=0;right=0;fontStyle=1;overflow=hidden;spacing=0;rounded=1;strokeColor=#006658;fontColor=#5C5C5C;" parent="193" vertex="1">
                    <mxGeometry width="90" height="30" as="geometry"/>
                </mxCell>
                <mxCell id="195" value="integer" style="shape=partialRectangle;connectable=0;fillColor=none;top=0;left=0;bottom=0;right=0;align=center;spacingLeft=0;fontStyle=5;overflow=hidden;flipH=1;spacing=0;rounded=1;strokeColor=#006658;fontColor=#5C5C5C;" parent="193" vertex="1">
                    <mxGeometry x="90" width="140.32258064516134" height="30" as="geometry"/>
                </mxCell>
                <mxCell id="196" style="shape=partialRectangle;collapsible=0;dropTarget=0;pointerEvents=0;fillColor=none;top=0;left=0;bottom=1;right=0;points=[[0,0.5],[1,0.5]];portConstraint=eastwest;strokeColor=none;spacing=0;rounded=1;fontColor=#5C5C5C;" parent="192" vertex="1">
                    <mxGeometry y="60" width="230.32258064516134" height="30" as="geometry"/>
                </mxCell>
                <mxCell id="197" value="title" style="shape=partialRectangle;connectable=0;fillColor=none;top=0;left=0;bottom=0;right=0;fontStyle=1;overflow=hidden;spacing=0;rounded=1;strokeColor=#006658;fontColor=#5C5C5C;" parent="196" vertex="1">
                    <mxGeometry width="90" height="30" as="geometry"/>
                </mxCell>
                <mxCell id="198" value="integer" style="shape=partialRectangle;connectable=0;fillColor=none;top=0;left=0;bottom=0;right=0;align=center;spacingLeft=0;fontStyle=5;overflow=hidden;strokeColor=none;spacing=0;rounded=1;fontColor=#5C5C5C;" parent="196" vertex="1">
                    <mxGeometry x="90" width="140.32258064516134" height="30" as="geometry"/>
                </mxCell>
                <mxCell id="199" style="shape=partialRectangle;collapsible=0;dropTarget=0;pointerEvents=0;fillColor=none;top=0;left=0;bottom=1;right=0;points=[[0,0.5],[1,0.5]];portConstraint=eastwest;strokeColor=none;spacing=0;rounded=1;fontColor=#5C5C5C;" parent="192" vertex="1">
                    <mxGeometry y="90" width="230.32258064516134" height="30" as="geometry"/>
                </mxCell>
                <mxCell id="200" value="answer_id" style="shape=partialRectangle;connectable=0;fillColor=none;top=0;left=0;bottom=0;right=0;fontStyle=1;overflow=hidden;spacing=0;rounded=1;strokeColor=#006658;fontColor=#5C5C5C;" parent="199" vertex="1">
                    <mxGeometry width="90" height="30" as="geometry"/>
                </mxCell>
                <mxCell id="201" value="integer" style="shape=partialRectangle;connectable=0;fillColor=none;top=0;left=0;bottom=0;right=0;align=center;spacingLeft=0;fontStyle=5;overflow=hidden;strokeColor=none;spacing=0;rounded=1;fontColor=#5C5C5C;" parent="199" vertex="1">
                    <mxGeometry x="90" width="140.32258064516134" height="30" as="geometry"/>
                </mxCell>
                <mxCell id="245" value="" style="edgeStyle=entityRelationEdgeStyle;fontSize=12;html=1;endArrow=ERoneToMany;entryX=0;entryY=0.5;entryDx=0;entryDy=0;exitX=1;exitY=0.5;exitDx=0;exitDy=0;" parent="181" source="199" target="206" edge="1">
                    <mxGeometry width="100" height="100" relative="1" as="geometry">
                        <mxPoint x="686.8279569892474" y="911.7717441325357" as="sourcePoint"/>
                        <mxPoint x="814.7849462365592" y="762.9912563276577" as="targetPoint"/>
                    </mxGeometry>
                </mxCell>
            </root>
        </mxGraphModel>
    </diagram>
</mxfile>